<?xml version="1.0" encoding="UTF-8"?>
<!-- Uploaded to: SVG Repo, www.svgrepo.com, Generator: SVG Repo Mixer Tools -->
<svg width="800px" height="800px" version="1.1" viewBox="0 0 512 512" xml:space="preserve" xmlns="http://www.w3.org/2000/svg">

	<circle cx="256" cy="256" r="256" fill="#2C5871"/>
	<path d="m511.32 273.68c-0.625-5e-3 -121.12-120.14-121.12-121.14h-249.51c0 10.752-8.714 19.466-19.466 19.466v18.79l-0.538-0.133-29.138 80.973c1.198 0.43 2.314 0.983 3.369 1.613l-0.466 1.295c1.198 0.43 2.314 0.983 3.369 1.613l-0.466 1.295c1.198 0.43 2.314 0.983 3.369 1.613l-0.466 1.295c0.758 0.271 1.434 0.666 2.135 1.019 2.248 4.572 2.739 9.999 0.876 15.171 0 0 209.37 208.58 209.18 209.14 108.65-24.479 191.09-117.96 198.88-232z" fill="#133142"/>
	<path d="m103.28 296.54 234.77 84.475c3.64-10.117 14.792-15.365 24.909-11.725l29.138-80.973c-10.117-3.64-15.365-14.792-11.725-24.904l-234.77-84.475c-3.64 10.117-14.792 15.365-24.909 11.725l-29.138 80.973c10.122 3.636 15.37 14.787 11.73 24.904zm229.08-40.955-4.925-1.772 1.771-4.925 4.925 1.772-1.771 4.925zm-3.543 9.851-4.925-1.772 1.772-4.925 4.925 1.772-1.772 4.925zm-3.548 9.856-4.925-1.772 1.772-4.925 4.925 1.772-1.772 4.925zm-3.543 9.851-4.925-1.772 1.772-4.925 4.925 1.772-1.772 4.925zm-31.514 72.115 4.925 1.772-1.772 4.925-4.925-1.772 1.772-4.925zm3.543-9.851 4.925 1.772-1.772 4.925-4.925-1.772 1.772-4.925zm3.548-9.851 4.925 1.772-1.772 4.925-4.925-1.772 1.772-4.925zm3.543-9.85 4.925 1.772-1.772 4.925-4.925-1.772 1.772-4.925zm-5.816-31.161c3.384-9.4 13.747-14.28 23.148-10.895 9.4 3.384 14.28 13.747 10.895 23.148-3.016 8.381-11.576 13.128-20.06 11.668l-1.469 4.086-4.925-1.772 1.434-3.983c-8.122-4.03-12.167-13.517-9.023-22.252z" fill="#D7ECED"/>
	<path d="m145.6 178.94 146.53 52.726-42.317 117.6-146.53-52.726c3.64-10.117-1.608-21.268-11.725-24.909l29.138-80.973c10.112 3.641 21.263-1.607 24.903-11.719z" fill="#E64500"/>
	<path d="m121.23 172.01v86.057c10.752 0 19.466 8.714 19.466 19.466h249.51c0-10.752 8.714-19.466 19.466-19.466v-86.057c-10.752 0-19.466-8.714-19.466-19.466h-249.51c0 10.752-8.714 19.466-19.466 19.466zm221.16 101.87h-5.238v-5.238h5.238v5.238zm0-10.47h-5.238v-5.233h5.238v5.233zm0-10.471h-5.238v-5.233h5.238v5.233zm0-10.47h-5.238v-5.233h5.238v5.233zm-5.238-89.001h5.238v5.233h-5.238v-5.233zm0 10.47h5.238v5.233h-5.238v-5.233zm0 10.471h5.238v5.238h-5.238v-5.238zm0 10.47h5.238v5.238h-5.238v-5.238zm0 14.705v-4.234h5.238v4.342c8.474 1.5 14.925 8.863 14.925 17.772 0 9.989-8.1 18.089-18.089 18.089-9.994 0-18.089-8.1-18.089-18.089-6e-3 -9.279 7.009-16.841 16.015-17.88z" fill="#fff"/>
	<path d="m140.69 277.52h155.73v-124.98h-155.73c0 10.752-8.714 19.466-19.466 19.466v86.057c10.752 0 19.466 8.715 19.466 19.461z" fill="#FC611F"/>

</svg>
